<svg xmlns="http://www.w3.org/2000/svg" xmlns:xlink="http://www.w3.org/1999/xlink" version="1.1" x="0px" y="0px" width="24px" height="24px" viewBox="0 0 24 24" enable-background="new 0 0 24 24" xml:space="preserve">
  <g>
    <path fill="#FF0033" d="M21,17H3c-0.55,0-1-0.45-1-1V6c0-0.55,0.45-1,1-1h18c0.55,0,1,0.45,1,1v10C22,16.55,21.55,17,21,17z    M19,19.2v-0.9c0-0.17-0.13-0.3-0.3-0.3H5.3C5.13,18,5,18.13,5,18.3v0.9c0,0.17,0.13,0.3,0.3,0.3h13.4C18.87,19.5,19,19.37,19,19.2   z"/>
    <polygon fill="#FFFFFF" points="10,14 15,11 10,8  "/>
  </g>
</svg>