<svg xmlns="http://www.w3.org/2000/svg" fill="currentColor" height="24" viewBox="0 0 24 24" width="24"><path d="M16 6V4.344l-.005-.048C15.805 2.32 13.96 1 12 1c-1.961 0-3.805 1.32-3.995 3.296L8 4.344V6H4a2 2 0 00-2 2v10a4 4 0 004 4h12a4 4 0 004-4V8a2 2 0 00-2-2h-4Zm-6 0V4.447C10.094 3.732 10.851 3 12 3s1.906.732 2 1.447V6h-4Zm5 3a1 1 0 011 1v.656l-.005.048C15.805 12.68 13.96 14 12 14c-1.961 0-3.805-1.32-3.995-3.296L8 10.656V10a1 1 0 012 0v.553c.094.715.851 1.447 2 1.447s1.906-.732 2-1.447V10a1 1 0 011-1Z"/></svg>