<svg xmlns="http://www.w3.org/2000/svg" fill="currentColor" height="24" viewBox="0 0 24 24" width="24"><path d="M15.97 2.615 12 4.998 8.03 2.615a2 2 0 00-2.06 0l-5 3A2 2 0 000 7.33v7.34a2 2 0 00.97 1.715l10 6c.634.38 1.426.38 2.06 0l10-6A1.998 1.998 0 0024 14.67V7.33a2 2 0 00-.97-1.715l-5-3a2 2 0 00-2.06 0ZM7 7.5a1 1 0 011 1v1.502h1.5a1 1 0 010 2H8V13.5a1 1 0 11-2 0v-1.498H4.5a1 1 0 010-2H6V8.5a1 1 0 011-1Zm11.5 1.502a1.5 1.5 0 110 3 1.5 1.5 0 010-3Zm-4 2a1.5 1.5 0 110 3 1.5 1.5 0 010-3Z"/></svg>