<svg xmlns="http://www.w3.org/2000/svg" fill="currentColor" height="24" viewBox="0 0 24 24" width="24"><path d="M17.5 1h-11A1.5 1.5 0 005 2.5V4H2a1 1 0 00-1 1v3a5 5 0 004.669 4.987 7.01 7.01 0 004.72 3.826l-2.926 4.655A1 1 0 008.31 23h7.38a1 1 0 00.847-1.532l-2.927-4.657a7.01 7.01 0 004.72-3.824A5 5 0 0023 8V5a1 1 0 00-1-1h-3V2.5A1.5 1.5 0 0017.5 1ZM7 10V3h10v7a5 5 0 11-10 0ZM3 8V6h2v4c0 .283.017.565.052.845A3 3 0 013 8Zm16 2V6h2v2a3 3 0 01-2.053 2.845c.034-.277.052-.559.053-.845Zm-8.88 11L12 18.008 13.88 21h-3.76Z"/></svg>