<svg xmlns="http://www.w3.org/2000/svg" fill="currentColor" height="24" viewBox="0 0 24 24" width="24"><path d="M11.313 2.002c2.088 0 4.14.546 5.953 1.583l.273.156a2 2 0 00.993.264H21a1 1 0 011 1V11a1 1 0 01-1.002 1l-2.787-.005a1 1 0 00-.946.67l-3.02 8.628a.815.815 0 01-.966.522 3.262 3.262 0 01-2.35-4.062l.707-2.477a1 1 0 00-.961-1.274h-5.29a2.24 2.24 0 01-2.004-1.238l-.18-.359a1.784 1.784 0 01.601-2.278.446.446 0 00.198-.37v-.07a.578.578 0 00-.116-.347 2.374 2.374 0 01.412-3.278l.498-.399a.379.379 0 00.123-.415l-.07-.207a2.1 2.1 0 01.313-1.923A2.798 2.798 0 017.4 2l3.913.002Z"/></svg>