<svg xmlns="http://www.w3.org/2000/svg" style="display: none;">

  <symbol id="footer-logo-desktop" viewBox="0 0 40 40">
    <path
      d="M29.4889 15.285C29.4889 15.285 36.8392 14.1158 38 10.7058H26.7401V8H2L5.0477 11.5674V15.2225C5.0477 15.2225 12.7377 14.8191 15.7124 17.0946C19.7842 20.9017 11.1328 26.048 11.1328 26.048L9.64927 31C11.9691 28.7718 16.3905 25.8892 24.4969 26.0282C21.412 27.0117 18.3101 28.5478 15.8952 31H32.2824L30.7393 26.048C30.7393 26.048 18.8623 18.9833 29.4889 15.2855V15.285Z"
      fill="white" />
  </symbol>

  <symbol id="footer-logo-mobile" viewBox="0 0 130 20">
    <path
      d="M22.4108 6.04039C22.4108 6.04039 28.4033 5.07094 29.3497 2.24352H20.1699V0H0L2.48469 2.95793V5.98856C2.48469 5.98856 8.75416 5.6541 11.1793 7.54079C14.4989 10.6975 7.44568 14.9645 7.44568 14.9645L6.23622 19.0705C8.12751 17.2229 11.7321 14.8329 18.3411 14.9481C15.826 15.7636 13.2971 17.0373 11.3284 19.0705H24.6884L23.4303 14.9645C23.4303 14.9645 13.7473 9.10645 22.4108 6.04039Z"
      fill="white" />
    <path
      d="M40.7917 13.1949C40.0837 13.9033 39.3829 14.2058 38.4492 14.2058C36.7569 14.2058 35.6642 12.9754 35.6642 11.0736C35.6642 9.17168 36.8544 7.90438 38.5576 7.90438C39.4389 7.90438 40.1307 8.20137 40.7357 8.83964L40.8098 8.91711L41.9693 7.31961L41.9133 7.26427C41.0247 6.37329 39.8724 5.92134 38.4871 5.92134C35.5937 5.92134 33.495 8.07963 33.495 11.0551C33.495 14.0306 35.4348 16.2073 38.3228 16.2073C39.7983 16.2073 40.9561 15.7332 41.9675 14.7168L42.0253 14.6596L40.8658 13.123L40.7935 13.1949H40.7917Z"
      fill="white" />
    <path
      d="M50.3514 11.2912C50.3514 13.1285 49.5044 14.1837 48.0306 14.1837C46.6688 14.1837 45.9788 13.3351 45.9788 11.662V6.10212H43.7736V11.8354C43.7736 14.4973 45.0613 16.0856 47.2178 16.0856C48.5273 16.0856 49.5387 15.5727 50.2286 14.5619L50.29 15.8476H52.3038V6.10212H50.3514V11.2912Z"
      fill="white" />
    <path
      d="M57.3356 7.78448L57.2887 6.10028H55.1593V15.8458H57.3645V11.1381C57.3645 10.1697 57.6373 9.41702 58.1755 8.9042C58.981 8.13497 60.173 8.09254 60.8106 8.13497L60.9063 8.14235V5.95455H60.816C59.2411 5.95455 58.0725 6.57067 57.3356 7.78448Z"
      fill="white" />
    <path
      d="M66.359 10.0959C65.2681 9.84684 64.3253 9.63285 64.3253 8.84886C64.3253 8.17555 64.961 7.77341 66.0248 7.77341C66.9893 7.77341 67.7984 8.11099 68.4938 8.80274L68.566 8.87469L69.7093 7.3934L69.6497 7.33622C68.6924 6.39727 67.4535 5.92134 65.9706 5.92134C63.7347 5.92134 62.1724 7.17019 62.1724 8.95954C62.1724 11.1529 64.011 11.5476 65.4884 11.8668C66.6208 12.1103 67.5979 12.3206 67.5979 13.2042C67.5979 14.1874 66.5323 14.335 65.8984 14.335C64.7985 14.335 63.9316 13.9494 63.0863 13.0824L63.0177 13.0123L61.7769 14.4678L61.8383 14.5287C62.6149 15.309 63.7798 16.2055 65.9165 16.2055C68.1741 16.2055 69.7508 14.9179 69.7508 13.0732C69.7508 10.8669 67.8707 10.439 66.359 10.094V10.0959Z"
      fill="white" />
    <path
      d="M75.9566 5.93056C73.159 5.93056 71.1289 8.10545 71.1289 11.1012C71.1289 14.2538 73.0596 16.2903 76.0469 16.2903C77.7537 16.2903 79.027 15.7572 80.0565 14.6117L80.1089 14.5526L78.9475 13.1156L78.8771 13.1857C78.077 13.9882 77.2498 14.346 76.1914 14.346C74.5298 14.346 73.5093 13.4126 73.3089 11.7137H80.4954V11.6214C80.4954 11.531 80.499 11.4443 80.5044 11.3576C80.5098 11.2672 80.5134 11.1787 80.5134 11.0846C80.5134 7.95419 78.7254 5.93241 75.9566 5.93241V5.93056ZM73.3522 9.97781C73.6303 8.55555 74.6363 7.64243 75.9386 7.64243C77.2408 7.64243 78.1221 8.49284 78.3136 9.97781H73.3522Z"
      fill="white" />
    <path
      d="M85.1949 5.36794C85.1949 4.21501 85.7547 3.55276 86.7318 3.55276C87.2683 3.55276 87.7252 3.72063 88.1695 4.08403L88.2508 4.15044L89.2152 2.45148L89.1484 2.40352C88.3899 1.85012 87.55 1.58079 86.5801 1.58079C84.3315 1.58079 82.9896 3.03441 82.9896 5.46755V6.10212H81.458L80.9577 8.09623H82.9896V16.1077H85.1949V8.09623H88.4838V6.10212H85.1949V5.36794Z"
      fill="white" />
    <path
      d="M93.8678 5.866C91.3699 5.866 88.8414 7.64797 88.8414 11.0551C88.8414 14.4622 91.3609 16.2258 93.8497 16.2258C96.3385 16.2258 98.858 14.4493 98.858 11.0551C98.858 7.66088 96.3476 5.866 93.8678 5.866ZM93.8497 14.2796C92.4391 14.2796 91.0105 13.171 91.0105 11.0551C91.0105 8.93925 92.4482 7.81215 93.8678 7.81215C95.5294 7.81215 96.6889 9.13848 96.6889 11.0367C96.6889 13.1654 95.2603 14.2796 93.8497 14.2796Z"
      fill="white" />
    <path
      d="M103.131 7.78448L103.084 6.10028H100.955V15.8458H103.16V11.1381C103.16 10.1697 103.433 9.41702 103.971 8.9042C104.777 8.13497 105.967 8.09254 106.606 8.13497L106.702 8.14235V5.95455H106.612C105.037 5.95455 103.868 6.57067 103.133 7.78448H103.131Z"
      fill="white" />
    <path
      d="M115.169 7.41185C114.412 6.38251 113.296 5.84018 111.922 5.84018C109.27 5.84018 107.273 8.02244 107.273 10.9186C107.273 13.8148 109.169 15.9601 111.884 15.9601C113.226 15.9601 114.365 15.4012 115.124 14.3792V15.3292C115.124 17.15 114.15 18.0354 112.149 18.0354C111.28 18.0354 110.426 17.838 109.615 17.4506L109.527 17.4082L108.839 19.2677L108.914 19.3045C109.888 19.7713 110.959 20 112.187 20C115.503 20 117.329 18.301 117.329 15.2186V6.10212H115.203L115.171 7.41369L115.169 7.41185ZM112.353 14.038C110.831 14.038 109.767 12.7578 109.767 10.9241C109.767 9.09051 110.89 7.8472 112.498 7.8472C114.105 7.8472 115.102 9.05546 115.102 10.9241C115.102 12.7928 113.997 14.038 112.353 14.038Z"
      fill="white" />
    <path
      d="M124.203 5.93056C121.405 5.93056 119.375 8.10545 119.375 11.1012C119.375 14.2538 121.306 16.2903 124.293 16.2903C126 16.2903 127.275 15.7572 128.303 14.6117L128.355 14.5526L127.194 13.1156L127.124 13.1857C126.324 13.9882 125.496 14.346 124.438 14.346C122.776 14.346 121.756 13.4126 121.555 11.7137H128.742V11.6214C128.742 11.531 128.746 11.4443 128.751 11.3576C128.756 11.2672 128.76 11.1787 128.76 11.0846C128.76 7.95419 126.972 5.93241 124.203 5.93241V5.93056ZM121.599 9.97781C121.877 8.55555 122.881 7.64243 124.185 7.64243C125.489 7.64243 126.369 8.49284 126.56 9.97781H121.599Z"
      fill="white" />
  </symbol>


  <symbol id="site-logo" width="130" height="20" viewBox="0 0 130 20">
    <path
      d="M22.4108 6.04039C22.4108 6.04039 28.4033 5.07094 29.3497 2.24352H20.1699V0H0L2.48469 2.95793V5.98856C2.48469 5.98856 8.75416 5.6541 11.1793 7.54079C14.4989 10.6975 7.44568 14.9645 7.44568 14.9645L6.23622 19.0705C8.12751 17.2229 11.7321 14.8329 18.3411 14.9481C15.826 15.7636 13.2971 17.0373 11.3284 19.0705H24.6884L23.4303 14.9645C23.4303 14.9645 13.7473 9.10645 22.4108 6.04039Z"
      fill="white" />
    <path
      d="M40.7918 13.1949C40.0838 13.9033 39.383 14.2058 38.4493 14.2058C36.7569 14.2058 35.6643 12.9754 35.6643 11.0735C35.6643 9.17167 36.8545 7.90437 38.5576 7.90437C39.439 7.90437 40.1308 8.20136 40.7358 8.83962L40.8099 8.9171L41.9694 7.3196L41.9134 7.26426C41.0248 6.37327 39.8725 5.92133 38.4872 5.92133C35.5938 5.92133 33.4951 8.07961 33.4951 11.0551C33.4951 14.0306 35.4349 16.2073 38.3228 16.2073C39.7984 16.2073 40.9561 15.7332 41.9676 14.7168L42.0254 14.6596L40.8658 13.123L40.7936 13.1949H40.7918Z"
      fill="white" />
    <path
      d="M48.0307 14.1837C49.5045 14.1837 50.3515 13.1285 50.3515 11.2912V6.10211H52.3039V15.8476H50.2901L50.2287 14.5618C49.5388 15.5727 48.5274 16.0856 47.2179 16.0856C45.0614 16.0856 43.7737 14.4973 43.7737 11.8354V6.10211H45.9789V11.662C45.9789 13.3351 46.6689 14.1837 48.0307 14.1837Z"
      fill="white" />
    <path
      d="M57.3355 7.78446L57.2886 6.10026H55.1592V15.8457H57.3644V11.1381C57.3644 10.1696 57.6372 9.41701 58.1754 8.90418C58.9809 8.13495 60.1729 8.09252 60.8105 8.13495L60.9062 8.14233V5.95453H60.8159C59.241 5.95453 58.0724 6.57065 57.3355 7.78446Z"
      fill="white" />
    <path
      d="M66.3538 10.0947L66.3589 10.0959V10.094L66.3611 10.0945C67.8725 10.4394 69.7508 10.868 69.7508 13.0732C69.7508 14.9179 68.1741 16.2055 65.9165 16.2055C63.7798 16.2055 62.6149 15.3089 61.8383 14.5286L61.7769 14.4678L63.0177 13.0123L63.0863 13.0824C63.9315 13.9494 64.7985 14.3349 65.8984 14.3349C66.5323 14.3349 67.5979 14.1874 67.5979 13.2042C67.5979 12.3205 66.6208 12.1103 65.4884 11.8668L65.4836 11.8657C64.007 11.5468 62.1724 11.1505 62.1724 8.95953C62.1724 7.17018 63.7347 5.92133 65.9706 5.92133C67.4535 5.92133 68.6924 6.39725 69.6497 7.3362L69.7093 7.39339L68.566 8.87467L68.4938 8.80273C67.7984 8.11097 66.9893 7.77339 66.0248 7.77339C64.961 7.77339 64.3253 8.17553 64.3253 8.84884C64.3253 9.6316 65.2651 9.84614 66.3538 10.0947Z"
      fill="white" />
    <path fill-rule="evenodd" clip-rule="evenodd"
      d="M75.9566 5.93054C73.159 5.93054 71.1289 8.10543 71.1289 11.1012C71.1289 14.2538 73.0596 16.2903 76.0469 16.2903C77.7537 16.2903 79.027 15.7572 80.0565 14.6116L80.1089 14.5526L78.9475 13.1156L78.8771 13.1857C78.077 13.9881 77.2498 14.346 76.1914 14.346C74.5298 14.346 73.5094 13.4126 73.3089 11.7136H80.4954V11.6214C80.4954 11.531 80.499 11.4443 80.5044 11.3576C80.5098 11.2672 80.5134 11.1787 80.5134 11.0846C80.5134 7.95416 78.7254 5.93239 75.9566 5.93239V5.93054ZM73.3522 9.97779C73.6304 8.55553 74.6364 7.64241 75.9386 7.64241C77.2408 7.64241 78.1222 8.49281 78.3136 9.97779H73.3522Z"
      fill="white" />
    <path
      d="M86.7319 3.55278C85.7548 3.55278 85.1949 4.21502 85.1949 5.36795V6.10214H88.4838V8.09625H85.1949V16.1077H82.9896V8.09625H80.9578L81.4581 6.10214H82.9896V5.46757C82.9896 3.03442 84.3316 1.58081 86.5802 1.58081C87.5501 1.58081 88.3899 1.85013 89.1485 2.40354L89.2153 2.4515L88.2508 4.15046L88.1695 4.08405C87.7253 3.72065 87.2683 3.55278 86.7319 3.55278Z"
      fill="white" />
    <path fill-rule="evenodd" clip-rule="evenodd"
      d="M93.8677 5.86603C91.3699 5.86603 88.8413 7.648 88.8413 11.0551C88.8413 14.4623 91.3608 16.2258 93.8496 16.2258C96.3385 16.2258 98.858 14.4494 98.858 11.0551C98.858 7.66091 96.3475 5.86603 93.8677 5.86603ZM93.8496 14.2796C92.4391 14.2796 91.0104 13.171 91.0104 11.0551C91.0104 8.93928 92.4481 7.81217 93.8677 7.81217C95.5293 7.81217 96.6888 9.1385 96.6888 11.0367C96.6888 13.1655 95.2602 14.2796 93.8496 14.2796Z"
      fill="white" />
    <path
      d="M103.084 6.10026L103.131 7.78446H103.133C103.868 6.57065 105.037 5.95453 106.612 5.95453H106.702V8.14233L106.606 8.13495C105.967 8.09252 104.777 8.13495 103.971 8.90418C103.433 9.41701 103.16 10.1696 103.16 11.1381V15.8457H100.955V6.10026H103.084Z"
      fill="white" />
    <path fill-rule="evenodd" clip-rule="evenodd"
      d="M115.169 7.41182C114.412 6.38249 113.296 5.84015 111.922 5.84015C109.27 5.84015 107.273 8.02241 107.273 10.9186C107.273 13.8147 109.169 15.9601 111.884 15.9601C113.226 15.9601 114.365 15.4012 115.124 14.3792V15.3292C115.124 17.1499 114.15 18.0354 112.149 18.0354C111.28 18.0354 110.426 17.838 109.615 17.4506L109.527 17.4082L108.839 19.2676L108.914 19.3045C109.888 19.7712 110.959 20 112.187 20C115.503 20 117.329 18.301 117.329 15.2185V6.10209H115.203L115.171 7.41367L115.169 7.41182ZM112.353 14.0379C110.831 14.0379 109.767 12.7577 109.767 10.9241C109.767 9.09049 110.89 7.84717 112.498 7.84717C114.105 7.84717 115.102 9.05544 115.102 10.9241C115.102 12.7928 113.997 14.0379 112.353 14.0379Z"
      fill="white" />
    <path fill-rule="evenodd" clip-rule="evenodd"
      d="M119.375 11.1012C119.375 8.10543 121.406 5.93054 124.203 5.93054V5.93239C126.972 5.93239 128.76 7.95416 128.76 11.0846C128.76 11.1787 128.756 11.2672 128.751 11.3576C128.746 11.4443 128.742 11.531 128.742 11.6214V11.7136H121.555C121.756 13.4126 122.776 14.346 124.438 14.346C125.496 14.346 126.324 13.9881 127.124 13.1857L127.194 13.1156L128.355 14.5526L128.303 14.6116C127.275 15.7572 126 16.2903 124.294 16.2903C121.306 16.2903 119.375 14.2538 119.375 11.1012ZM124.185 7.64241C122.881 7.64241 121.877 8.55553 121.599 9.97779H126.56C126.369 8.49281 125.489 7.64241 124.185 7.64241Z"
      fill="white" />
  </symbol>


  <symbol id="site-logo-mobile" viewBox="0 0 32 32">
    <path
      d="M23.9074 12.0181C23.9074 12.0181 30.0327 11.0522 31 8.23523H21.6168V6H1L3.53975 8.94699V11.9664C3.53975 11.9664 9.94812 11.6332 12.427 13.5129C15.8202 16.6579 8.61065 20.9092 8.61065 20.9092L7.37439 25C9.30758 23.1593 12.9921 20.7781 19.7474 20.8929C17.1767 21.7053 14.5917 22.9743 12.5794 25H26.2354L24.9494 20.9092C24.9494 20.9092 15.0519 15.0732 23.9074 12.0184V12.0181Z"
      fill="currentColor" />
  </symbol>

  <symbol id="searchIcon" viewBox="0 0 20 20">
    <path fill-rule="evenodd" clip-rule="evenodd"
      d="M11.4764 12.8908C10.4956 13.5892 9.29579 14 8 14C4.68629 14 2 11.3137 2 8C2 4.68629 4.68629 2 8 2C11.3137 2 14 4.68629 14 8C14 9.29587 13.5892 10.4958 12.8907 11.4766L16.707 15.2929C17.0975 15.6834 17.0975 16.3166 16.707 16.7071C16.3164 17.0976 15.6833 17.0976 15.2927 16.7071L11.4764 12.8908ZM12 8C12 10.2091 10.2091 12 8 12C5.79086 12 4 10.2091 4 8C4 5.79086 5.79086 4 8 4C10.2091 4 12 5.79086 12 8Z"
      fill="currentColor" />
  </symbol>

  <symbol id="icon-download" viewBox="0 0 20 20">
    <path fill-rule="evenodd" clip-rule="evenodd"
      d="M16 18C16 18.5523 15.5522 19 15 19L4.99996 19C4.44768 19 3.99996 18.5523 3.99996 18C3.99996 17.4477 4.44768 17 4.99996 17L15 17C15.5522 17 16 17.4477 16 18ZM10.6247 13.7809C10.2594 14.073 9.74049 14.073 9.37527 13.7809L4.37527 9.78087C3.94401 9.43586 3.87409 8.80657 4.2191 8.3753C4.5641 7.94404 5.1934 7.87412 5.62466 8.21913L8.99996 10.9194L8.99996 2C8.99996 1.44772 9.44768 0.999999 9.99996 0.999999C10.5522 1 11 1.44772 11 2L11 10.9194L14.3753 8.21913C14.8065 7.87412 15.4358 7.94404 15.7808 8.37531C16.1258 8.80657 16.0559 9.43586 15.6247 9.78087L10.6247 13.7809Z"
      fill="currentColor" />
  </symbol>

  <symbol id="arrow" viewBox="0 0 20 20">
    <path fill-rule="evenodd" clip-rule="evenodd"
      d="M10.6247 13.7809C10.2594 14.073 9.74049 14.073 9.37527 13.7809L4.37527 9.78087C3.94401 9.43586 3.87408 8.80657 4.21909 8.37531C4.5641 7.94404 5.1934 7.87412 5.62466 8.21913L9.99996 11.7194L14.3753 8.21913C14.8065 7.87412 15.4358 7.94404 15.7808 8.37531C16.1258 8.80657 16.0559 9.43586 15.6247 9.78087L10.6247 13.7809Z"
      fill="currentcolor" />
  </symbol>

  <symbol id="sliderArrow" viewBox="0 0 24 24">
    <path fill-rule="evenodd" clip-rule="evenodd"
      d="M17.6389 11.5238C18.149 12.1189 18.1149 13.0065 17.5607 13.5607L11.5607 19.5607C10.9749 20.1465 10.0251 20.1465 9.43933 19.5607C8.85355 18.9749 8.85355 18.0252 9.43933 17.4394L14.4571 12.4216L9.36111 6.47621C8.82198 5.84722 8.89482 4.90027 9.52381 4.36114C10.1528 3.82201 11.0997 3.89485 11.6389 4.52384L17.6389 11.5238Z"
      fill="currentcolor" />
  </symbol>

  <symbol id="arrow-right" viewBox="0 0 18 18">
    <path
      d="M7.49988 4.5L6.44238 5.5575L9.87738 9L6.44238 12.4425L7.49988 13.5L11.9999 9L7.49988 4.5Z"
      fill="currentColor" />
  </symbol>

  <symbol id="clear" width="32" height="32" viewBox="0 0 32 32">
    <path fill-rule="evenodd" clip-rule="evenodd"
      d="M10.2929 10.2929C10.6834 9.90237 11.3166 9.90237 11.7071 10.2929L16 14.5858L20.2929 10.2929C20.6834 9.90237 21.3166 9.90237 21.7071 10.2929C22.0976 10.6834 22.0976 11.3166 21.7071 11.7071L17.4142 16L21.7071 20.2929C22.0976 20.6834 22.0976 21.3166 21.7071 21.7071C21.3166 22.0976 20.6834 22.0976 20.2929 21.7071L16 17.4142L11.7071 21.7071C11.3166 22.0976 10.6834 22.0976 10.2929 21.7071C9.90237 21.3166 9.90237 20.6834 10.2929 20.2929L14.5858 16L10.2929 11.7071C9.90237 11.3166 9.90237 10.6834 10.2929 10.2929Z"
      fill="currentColor" />
  </symbol>

  <symbol id="icon-view-small" viewBox="0 0 20 20">
    <path fill-rule="evenodd" clip-rule="evenodd"
      d="M10 15C13.8947 15 17.2116 11.9302 18.465 10.6013C18.7878 10.2591 18.7878 9.74088 18.465 9.39869C17.2116 8.06981 13.8947 5 10 5C6.10528 5 2.78837 8.06981 1.53499 9.39869C1.21223 9.74088 1.21223 10.2591 1.53499 10.6013C2.78837 11.9302 6.10528 15 10 15ZM10 13C11.6569 13 13 11.6569 13 10C13 8.34315 11.6569 7 10 7C8.34314 7 7 8.34315 7 10C7 11.6569 8.34314 13 10 13Z"
      fill="currentColor" />
  </symbol>

  <symbol id="icon-cf" viewBox="0 0 20 20">
    <path
      d="M15.2716 7.62315C15.2716 7.62315 19.3551 6.97646 20 5.09035H13.7445V3.59375H0L1.69316 5.56691V7.58858C1.69316 7.58858 5.96542 7.36547 7.61799 8.62404C9.88011 10.7298 5.07377 13.5762 5.07377 13.5762L4.24959 16.3152C5.53839 15.0828 7.99472 13.4884 12.4983 13.5653C10.7845 14.1093 9.06117 14.9589 7.71958 16.3152H16.8236L15.9663 13.5762C15.9663 13.5762 9.36793 9.6687 15.2716 7.6234V7.62315Z"
      fill="white" />
  </symbol>

  <symbol id="arrow-up" viewBox="0 0 24 24">
    <path fill-rule="evenodd" clip-rule="evenodd"
      d="M12.6247 5.21913C12.2595 4.92696 11.7405 4.92696 11.3753 5.21913L6.3753 9.21913C5.94404 9.56414 5.87412 10.1934 6.21913 10.6247C6.56413 11.056 7.19343 11.1259 7.62469 10.7809L11 8.08063L11 18C11 18.5523 11.4477 19 12 19C12.5523 19 13 18.5523 13 18L13 8.08062L16.3753 10.7809C16.8066 11.1259 17.4359 11.056 17.7809 10.6247C18.1259 10.1934 18.056 9.56414 17.6247 9.21913L12.6247 5.21913Z"
      fill="currentColor" />
  </symbol>

  <symbol id="icon-small-chevron-right" viewBox="0 0 20 20">
    <path fill-rule="evenodd" clip-rule="evenodd"
      d="M12.8001 10.6001C13.0667 10.2445 13.0667 9.75561 12.8001 9.40006L9.80006 5.40006C9.46869 4.95823 8.84189 4.86869 8.40006 5.20006C7.95823 5.53143 7.86869 6.15823 8.20006 6.60006L10.7501 10.0001L8.20006 13.4001C7.86869 13.8419 7.95823 14.4687 8.40006 14.8001C8.84189 15.1314 9.46869 15.0419 9.80006 14.6001L12.8001 10.6001Z"
      fill="currentColor" />
  </symbol>

  <symbol id="icon-chevron-down"  viewBox="0 0 20 20">
    <path fill-rule="evenodd" clip-rule="evenodd"
      d="M10.6247 13.7809C10.2594 14.073 9.74049 14.073 9.37527 13.7809L4.37527 9.78087C3.94401 9.43586 3.87408 8.80657 4.21909 8.37531C4.5641 7.94404 5.1934 7.87412 5.62466 8.21913L9.99996 11.7194L14.3753 8.21913C14.8065 7.87412 15.4358 7.94404 15.7808 8.37531C16.1258 8.80657 16.0559 9.43586 15.6247 9.78087L10.6247 13.7809Z"
      fill="currentColor" />
  </symbol>

  <symbol id="icon-chevron-left" viewBox="0 0 20 20">
    <path fill-rule="evenodd" clip-rule="evenodd"
      d="M11.6247 15.7809C12.0559 15.4359 12.1258 14.8066 11.7808 14.3753L8.28059 10L11.7808 5.62472C12.1258 5.19346 12.0559 4.56416 11.6247 4.21916C11.1934 3.87415 10.5641 3.94407 10.2191 4.37533L6.2191 9.37533C5.92693 9.74055 5.92693 10.2595 6.2191 10.6247L10.2191 15.6247C10.5641 16.056 11.1934 16.1259 11.6247 15.7809Z"
      fill="currentColor" />
  </symbol>

  <symbol id="icon-chevron-right" viewBox="0 0 20 20">
    <path fill-rule="evenodd" clip-rule="evenodd"
      d="M8.37531 4.21914C8.80657 3.87413 9.43587 3.94405 9.78088 4.37531L13.7809 9.37531C14.0731 9.74053 14.0731 10.2595 13.7809 10.6247L9.78088 15.6247C9.43587 16.056 8.80657 16.1259 8.37531 15.7809C7.94405 15.4359 7.87413 14.8066 8.21914 14.3753L11.7194 10L8.21914 5.6247C7.87413 5.19344 7.94405 4.56415 8.37531 4.21914Z"
      fill="currentColor" />
  </symbol>

  <symbol id="icon-plus" width="20" height="20">
    <path fill-rule="evenodd" clip-rule="evenodd"
      d="M2.00015 10C2.00015 9.44772 2.44787 9 3.00015 9L9.00082 9L9.00082 3.00031C9.00082 2.44803 9.44853 2.00031 10.0008 2.00031C10.5531 2.00031 11.0008 2.44803 11.0008 3.00031L11.0008 9L17.0005 9C17.5528 9 18.0005 9.44772 18.0005 10C18.0005 10.5523 17.5528 11 17.0005 11L11.0008 11L11.0008 17.0001C11.0008 17.5524 10.5531 18.0001 10.0008 18.0001C9.44853 18.0001 9.00082 17.5524 9.00082 17.0001L9.00082 11L3.00015 11C2.44787 11 2.00015 10.5523 2.00015 10Z"
      fill="currentColor" />
  </symbol>

  <symbol id="icon-following-author" viewBox="0 0 20 20">
    <path
      d="M15.6508 5.24076C16.0701 5.60018 16.1187 6.23148 15.7593 6.65081L9.75926 13.6508C9.57798 13.8623 9.31672 13.9886 9.03838 13.9993C8.76004 14.01 8.48985 13.9041 8.29289 13.7071L5.29289 10.7071C4.90237 10.3166 4.90237 9.68344 5.29289 9.29291C5.68342 8.90239 6.31658 8.90239 6.70711 9.29291L8.94352 11.5293L14.2407 5.34923C14.6002 4.9299 15.2315 4.88134 15.6508 5.24076Z"
      fill="#999999" />
  </symbol>

  <symbol id="icon-external-link" viewBox="0 0 20 20">
    <path
      d="M11 2C10.4477 2 10 2.44772 10 3C10 3.55228 10.4477 4 11 4H14.5858L9.29289 9.29289C8.90237 9.68342 8.90237 10.3166 9.29289 10.7071C9.68342 11.0976 10.3166 11.0976 10.7071 10.7071L16 5.41421V9C16 9.55228 16.4477 10 17 10C17.5523 10 18 9.55228 18 9V3C18 2.44772 17.5523 2 17 2H11Z"
      fill="currentColor" />
    <path
      d="M3 4C2.44772 4 2 4.44772 2 5V17C2 17.5523 2.44772 18 3 18H15C15.5523 18 16 17.5521 16 16.9998V13H14V16H4V6H7V4H3Z"
      fill="currentColor" />
  </symbol>

  <symbol id="icon-bell" viewBox="0 0 24 24">
    <path d="M17 6V11.9512L20 17.0001H4L7.02197 11.9512V6L9 5L12 2L15 5L17 6Z" fill="currentColor"/>
    <path d="M15.8949 19.0002L11.9998 22.0001L8.11035 19.0002H15.8949Z" fill="currentColor"/>
  </symbol>

  <symbol id="icon-message" viewBox="0 0 24 24">
    <path fill-rule="evenodd" clip-rule="evenodd"
      d="M4 3H20C21.1 3 22 3.855 22 4.9V17.1C22 18.145 21.1 19 20 19H6L2.84437 21.8625C2.52588 22.1651 2 21.9393 2 21.5V4.9C2 3.855 2.9 3 4 3ZM6 7H18V9H6V7ZM6 10H18V12H6V10ZM6 13H18V15H6V13Z"
      fill="currentColor" />
  </symbol>

  <symbol id="icon-flag" viewBox="0 0 24 24" >
    <path
      d="M4 2C4.55228 2 5 2.44772 5 3V5H19.9932C20.8358 5 21.3043 5.96993 20.7779 6.62469L18.0643 10L20.7779 13.3753C21.3043 14.0301 20.8358 15 19.9932 15H5V21C5 21.5523 4.55228 22 4 22C3.44772 22 3 21.5523 3 21V3C3 2.44772 3.44772 2 4 2Z"
      fill="currentColor" />
  </symbol>

  <symbol id="icon-profile" width="24" height="24" viewBox="0 0 24 24" fill="none">
    <path
      d="M12 12C14.2091 12 16 10.2091 16 8C16 5.79086 14.2091 4 12 4C9.79086 4 8 5.79086 8 8C8 10.2091 9.79086 12 12 12Z"
      fill="currentColor" />
    <path d="M10 14C6.13401 14 3 17.134 3 21H21C21 17.134 17.866 14 14 14H10Z" fill="currentColor" />
  </symbol>

  <symbol id="icon-following" viewBox="0 0 24 24">
    <path
      d="M11.0616 4.59852C8.98867 2.46716 5.62771 2.46716 3.55473 4.59852C1.48175 6.72988 1.48176 10.1855 3.55474 12.3169L4.49309 13.2817L11.2831 20.263C11.6758 20.6667 12.3242 20.6667 12.7169 20.263L19.5069 13.2817L20.4453 12.3169C22.5182 10.1855 22.5182 6.72988 20.4453 4.59852C18.3723 2.46716 15.0113 2.46716 12.9384 4.59852L12 5.56331L11.0616 4.59852Z"
      fill="currentColor" />
  </symbol>

  <symbol id="icon-dashboard" viewBox="0 0 24 24">
    <path fill-rule="evenodd" clip-rule="evenodd"
      d="M21 4C21 3.44772 20.5523 3 20 3H12C11.4477 3 11 3.44772 11 4L11 10C11 10.5523 11.4477 11 12 11H20C20.5523 11 21 10.5523 21 10V4ZM19 5L13 5V9L19 9V5Z"
      fill="currentColor" />
    <path fill-rule="evenodd" clip-rule="evenodd"
      d="M12 13C12.5523 13 13 13.4477 13 14V20C13 20.5523 12.5523 21 12 21H4C3.44772 21 3 20.5523 3 20V14C3 13.4477 3.44771 13 4 13H12ZM5 19L5 15H11L11 19H5Z"
      fill="currentColor" />
    <path
      d="M21 14C21 13.4477 20.5523 13 20 13H16C15.4477 13 15 13.4477 15 14V20C15 20.5523 15.4477 21 16 21H20C20.5523 21 21 20.5523 21 20V14Z"
      fill="currentColor" />
    <path
      d="M9 4C9 3.44772 8.55228 3 8 3H4C3.44772 3 3 3.44772 3 4V10C3 10.5523 3.44772 11 4 11H8C8.55228 11 9 10.5523 9 10L9 4Z"
      fill="currentColor" />
  </symbol>

  <symbol id="icon-reward-store" viewBox="0 0 24 24">
    <path
      d="M13 3H11V5.0913C10.7093 5.14295 10.4324 5.21649 10.1694 5.31194C9.59647 5.5199 9.10479 5.80689 8.69442 6.1729C8.29178 6.53892 7.97819 6.959 7.75365 7.43315C7.53685 7.90731 7.42845 8.41058 7.42845 8.94296C7.42845 9.5003 7.53298 9.98693 7.74204 10.4029C7.95109 10.8188 8.2492 11.1806 8.63634 11.4884C9.03123 11.7962 9.50742 12.0582 10.0649 12.2745C10.6301 12.4908 11.2612 12.678 11.9581 12.836C12.7866 13.0107 13.406 13.2187 13.8164 13.4599C14.2345 13.6928 14.5094 13.9548 14.641 14.246C14.7804 14.5288 14.85 14.8366 14.85 15.1693C14.85 15.5437 14.7455 15.8764 14.5365 16.1676C14.3274 16.4587 14.0216 16.6875 13.6189 16.8538C13.224 17.0202 12.7324 17.1034 12.1439 17.1034C11.7025 17.1034 11.2573 17.0285 10.8082 16.8788C10.3591 16.7207 9.97974 16.4587 9.67003 16.0927C9.43179 15.8048 9.27601 15.4405 9.20271 15H7.01953C7.07968 15.5969 7.27019 16.1691 7.59105 16.7166C7.98594 17.3904 8.56666 17.9394 9.33321 18.3636C9.82009 18.6331 10.3757 18.817 11 18.9153V21H13V18.9531C13.4028 18.907 13.7794 18.827 14.13 18.713C14.7262 18.5134 15.2372 18.2389 15.6631 17.8895C16.0967 17.5318 16.4257 17.1075 16.6503 16.6168C16.8826 16.126 16.9987 15.5853 16.9987 14.9947C16.9987 14.2709 16.8361 13.6554 16.5109 13.1479C16.1857 12.6405 15.6902 12.2121 15.0243 11.8627C14.3584 11.5134 13.5105 11.2139 12.4807 10.9643C11.8922 10.8229 11.4083 10.6815 11.0289 10.5401C10.6495 10.3987 10.3553 10.249 10.1462 10.0909C9.93716 9.92454 9.79004 9.74569 9.70487 9.55437C9.62744 9.35472 9.58872 9.13012 9.58872 8.88057C9.58872 8.54783 9.67003 8.23173 9.83263 7.93226C10.003 7.6328 10.2701 7.3874 10.634 7.19608C11.0057 6.99643 11.4896 6.89661 12.0858 6.89661C12.6511 6.89661 13.1272 7.01307 13.5144 7.24599C13.9093 7.47891 14.2074 7.77421 14.4087 8.13191C14.577 8.41318 14.6776 8.70255 14.7104 9H16.8659C16.8334 8.3116 16.6454 7.68118 16.3018 7.10873C15.9224 6.46821 15.3766 5.95662 14.6642 5.57397C14.178 5.3128 13.6233 5.14074 13 5.05783V3Z"
      fill="currentColor" />
  </symbol>

  <symbol id="icon-settings" viewBox="0 0 24 24">
    <path fill-rule="evenodd" clip-rule="evenodd"
      d="M9.81056 2.75746C9.92185 2.3123 10.3218 2 10.7807 2H13.2191C13.678 2 14.078 2.3123 14.1893 2.75746L14.9076 5.63058C15.3144 5.8166 15.7003 6.04045 16.0608 6.29764L18.9099 5.48263C19.351 5.35643 19.8215 5.54668 20.0509 5.94407L21.2701 8.05583C21.4996 8.45322 21.4291 8.95576 21.0992 9.27473L18.9687 11.3347C18.9894 11.5537 18.9999 11.7756 18.9999 12C18.9999 12.2246 18.9894 12.4466 18.9687 12.6658L21.0985 14.7252C21.4284 15.0441 21.4989 15.5467 21.2694 15.9441L20.0502 18.0558C19.8208 18.4532 19.3503 18.6435 18.9092 18.5173L16.0607 17.7024C15.7002 17.9596 15.3144 18.1834 14.9076 18.3694L14.1893 21.2425C14.078 21.6877 13.678 22 13.2191 22H10.7807C10.3218 22 9.92185 21.6877 9.81056 21.2425L9.09228 18.3694C8.68548 18.1834 8.2996 17.9596 7.93914 17.7024L5.09069 18.5173C4.64952 18.6435 4.17907 18.4532 3.94963 18.0558L2.73041 15.9441C2.50098 15.5467 2.57144 15.0441 2.90132 14.7252L5.03117 12.6658C5.0105 12.4466 4.99992 12.2246 4.99992 12C4.99992 11.7756 5.01048 11.5537 5.03112 11.3347L2.90062 9.27473C2.57074 8.95576 2.50027 8.45322 2.72971 8.05583L3.94893 5.94407C4.17836 5.54668 4.64881 5.35643 5.08998 5.48263L7.93904 6.29764C8.29953 6.04045 8.68545 5.8166 9.09228 5.63058L9.81056 2.75746ZM12 15C10.3431 15 9 13.6569 9 12C9 10.3431 10.3431 9 12 9C13.6569 9 15 10.3431 15 12C15 13.6569 13.6569 15 12 15Z"
      fill="currentColor" />
  </symbol>

  <symbol id="icon-logout" viewBox="0 0 24 24" >
    <path
      d="M19 4H10V2H19C20.6569 2 22 3.34315 22 5V19C22 20.6569 20.6569 22 19 22H10V20H19C19.5523 20 20 19.5523 20 19V5C20 4.44772 19.5523 4 19 4Z"
      fill="currentColor" />
    <path
      d="M2.2 12.6001C1.93333 12.2445 1.93333 11.7556 2.2 11.4001L5.2 7.40006C5.53137 6.95823 6.15817 6.86869 6.6 7.20006C7.04183 7.53143 7.13137 8.15823 6.8 8.60006L5 11.0001H12C12.5523 11.0001 13 11.4478 13 12.0001C13 12.5523 12.5523 13.0001 12 13.0001H5L6.8 15.4001C7.13137 15.8419 7.04183 16.4687 6.6 16.8001C6.15817 17.1314 5.53137 17.0419 5.2 16.6001L2.2 12.6001Z"
      fill="currentColor" />
  </symbol>

  <symbol id="icon-close" viewBox="0 0 20 20">
    <path fill-rule="evenodd" clip-rule="evenodd"
      d="M4.29289 4.29289C4.68342 3.90237 5.31658 3.90237 5.70711 4.29289L10 8.58579L14.2929 4.29289C14.6834 3.90237 15.3166 3.90237 15.7071 4.29289C16.0976 4.68342 16.0976 5.31658 15.7071 5.70711L11.4142 10L15.7071 14.2929C16.0976 14.6834 16.0976 15.3166 15.7071 15.7071C15.3166 16.0976 14.6834 16.0976 14.2929 15.7071L10 11.4142L5.70711 15.7071C5.31658 16.0976 4.68342 16.0976 4.29289 15.7071C3.90237 15.3166 3.90237 14.6834 4.29289 14.2929L8.58579 10L4.29289 5.70711C3.90237 5.31658 3.90237 4.68342 4.29289 4.29289Z"
      fill="currentColor" />
  </symbol>

  <symbol id="icon-modal-close" viewBox="0 0 30 30">
    <path
      d="M15.5941 15.0254L19.6535 10.8629C19.8515 10.6599 19.8515 10.3553 19.6535 10.1523C19.4554 9.94924 19.1584 9.94924 18.9604 10.1523L14.901 14.3147L10.8416 10.1523C10.6436 9.94924 10.3465 9.94924 10.1485 10.1523C9.95049 10.3553 9.95049 10.6599 10.1485 10.8629L14.2079 15.0254L10.1485 19.1878C9.95049 19.3909 9.95049 19.6954 10.1485 19.8985C10.2475 20 10.3465 20 10.5446 20C10.7426 20 10.8416 20 10.9406 19.8985L15 15.736L19.0594 19.8985C19.1584 20 19.2574 20 19.4554 20C19.6535 20 19.7525 20 19.8515 19.8985C20.0495 19.6954 20.0495 19.3909 19.8515 19.1878L15.5941 15.0254Z"
      fill="currentColor" />
  </symbol>

  <symbol id="icon-warning" viewBox="0 0 24 24">
    <path fill-rule="evenodd" clip-rule="evenodd"
      d="M12.8384 3.49213C12.4623 2.83596 11.5377 2.83596 11.1616 3.49213L3.13577 17.4956C2.75435 18.1611 3.22186 19 3.97412 19H20.0259C20.7781 19 21.2456 18.1611 20.8642 17.4956L12.8384 3.49213ZM11.0274 8.01901H12.9726V13.0104H11.0274V8.01901ZM12.9726 15.0069H11.0274V17.0035H12.9726V15.0069Z"
      fill="currentColor" />
  </symbol>

  <symbol id="icon-view" viewBox="0 0 24 24" >
    <path fill-rule="evenodd" clip-rule="evenodd"
      d="M12 18C16.58 18 20.4592 14.0806 21.7786 12.5773C22.0738 12.241 22.0738 11.759 21.7786 11.4227C20.4592 9.91942 16.58 6 12 6C7.41995 6 3.54079 9.91942 2.22142 11.4227C1.92619 11.759 1.92619 12.241 2.22142 12.5773C3.54079 14.0806 7.41995 18 12 18ZM12 15C13.6569 15 15 13.6569 15 12C15 10.3431 13.6569 9 12 9C10.3431 9 9 10.3431 9 12C9 13.6569 10.3431 15 12 15Z"
      fill="currentColor" />
  </symbol>

  <symbol id="icon-unfollow" viewBox="0 0 24 24">
    <path fill-rule="evenodd" clip-rule="evenodd"
      d="M12 22C17.5228 22 22 17.5228 22 12C22 6.47715 17.5228 2 12 2C6.47715 2 2 6.47715 2 12C2 17.5228 6.47715 22 12 22ZM8.70711 7.29289C8.31658 6.90237 7.68342 6.90237 7.29289 7.29289C6.90237 7.68342 6.90237 8.31658 7.29289 8.70711L10.5858 12L7.29289 15.2929C6.90237 15.6834 6.90237 16.3166 7.29289 16.7071C7.68342 17.0976 8.31658 17.0976 8.70711 16.7071L12 13.4142L15.2929 16.7071C15.6834 17.0976 16.3166 17.0976 16.7071 16.7071C17.0976 16.3166 17.0976 15.6834 16.7071 15.2929L13.4142 12L16.7071 8.70711C17.0976 8.31658 17.0976 7.68342 16.7071 7.29289C16.3166 6.90237 15.6834 6.90237 15.2929 7.29289L12 10.5858L8.70711 7.29289Z"
      fill="#CCCCCC" />
  </symbol>

  <symbol id="icon-close-toast" viewBox="0 0 20 20">
    <path fill-rule="evenodd" clip-rule="evenodd"
      d="M4.29289 4.29289C4.68342 3.90237 5.31658 3.90237 5.70711 4.29289L10 8.58579L14.2929 4.29289C14.6834 3.90237 15.3166 3.90237 15.7071 4.29289C16.0976 4.68342 16.0976 5.31658 15.7071 5.70711L11.4142 10L15.7071 14.2929C16.0976 14.6834 16.0976 15.3166 15.7071 15.7071C15.3166 16.0976 14.6834 16.0976 14.2929 15.7071L10 11.4142L5.70711 15.7071C5.31658 16.0976 4.68342 16.0976 4.29289 15.7071C3.90237 15.3166 3.90237 14.6834 4.29289 14.2929L8.58579 10L4.29289 5.70711C3.90237 5.31658 3.90237 4.68342 4.29289 4.29289Z"
      fill="currentColor" />
  </symbol>

  <symbol id="notification-bubble" viewBox="0 0 12 12">
    <circle cx="6" cy="6" r="5" fill="#FF3D3D" stroke="#0D0D0D" stroke-width="2" />
  </symbol>

  <symbol id="icon-filter" viewBox="0 0 20 20">
    <path
      d="M12.1204 8.85957C12.0427 8.95019 12 9.06561 12 9.18496V17.191C12 17.5627 11.6089 17.8044 11.2764 17.6382L8.27643 16.1382C8.10704 16.0535 8.00004 15.8804 8.00004 15.691V9.04501C8.00004 8.9239 7.95608 8.8069 7.87633 8.71576L2.72564 2.82925C2.44276 2.50596 2.67234 2 3.10192 2H16.9129C17.3401 2 17.5706 2.50106 17.2926 2.8254L12.1204 8.85957Z"
      fill="currentColor" />
  </symbol>

  <!-- split button -->
  <symbol id="split-button-icon-subscribe" viewBox="0 0 20 20">
    <path d="M14.6202 3H5.37981L2 7.26868L10 18L18 7.26868L14.6202 3Z" fill="currentColor" />
  </symbol>

  <symbol id="icon-new" viewBox="0 0 24 24">
    <path
      d="M12.1562 14.1875L14.5 19L16.8437 14.1875L22 12L16.8438 9.8125L14.5 5L12.1562 9.8125L7 12L12.1562 14.1875Z"
      fill="currentColor" />
    <path
      d="M4.40625 17.4063L5.5 15L6.59375 17.4063L9 18.5L6.59375 19.5938L5.5 22L4.40625 19.5937L2 18.5L4.40625 17.4063Z"
      fill="currentColor" />
    <path
      d="M6.59375 6.59375L5.5 9L4.40625 6.59375L2 5.5L4.40625 4.40625L5.5 2L6.59375 4.40625L9 5.5L6.59375 6.59375Z"
      fill="currentColor" />
  </symbol>

  <symbol id="icon-login" viewBox="0 0 24 24">
    <path
      d="M8 2V4H19C19.5523 4 20 4.44772 20 5V19C20 19.5523 19.5523 20 19 20H8V22H19C20.6569 22 22 20.6569 22 19V5C22 3.34315 20.6569 2 19 2H8Z"
      fill="currentColor" />
    <path
      d="M12.8 11.3999C13.0667 11.7555 13.0667 12.2444 12.8 12.5999L9.8 16.5999C9.46863 17.0418 8.84183 17.1313 8.4 16.7999C7.95817 16.4686 7.86863 15.8418 8.2 15.3999L10 12.9999H3C2.44771 12.9999 2 12.5522 2 11.9999C2 11.4477 2.44771 10.9999 3 10.9999H10L8.2 8.59994C7.86863 8.15811 7.95817 7.53131 8.4 7.19994C8.84183 6.86857 9.46863 6.95811 9.8 7.39994L12.8 11.3999Z"
      fill="currentColor" />
  </symbol>

  <symbol id='icon-crown' viewBox="0 0 20 20">
    <path
      d="M3.84917 15.6529C3.91548 15.8591 4.11584 16 4.34285 16H15.6572C15.8842 16 16.0845 15.8591 16.1508 15.6529L18.9766 6.86576C19.1032 6.47197 18.6933 6.11427 18.2909 6.2674L13.7119 8.00997C13.4547 8.10783 13.1621 7.99543 13.0488 7.75529L10.4711 2.28985C10.2888 1.90338 9.71119 1.90338 9.52892 2.28985L6.95115 7.75529C6.83789 7.99543 6.54525 8.10783 6.28809 8.00997L1.70906 6.2674C1.30666 6.11427 0.896768 6.47197 1.0234 6.86576L3.84917 15.6529Z"
      fill="currentColor" />
  </symbol>

  <symbol id='subscribed-crown' viewBox="0 0 19 15">
    <path
      d="M15.3701 12.9628L17.533 6.35395C17.9158 5.18438 16.7203 4.35899 15.7843 4.70897L12.7531 5.84241L11.1515 2.50621C10.6068 1.37173 8.9915 1.37178 8.44693 2.50627L6.84555 5.8424L3.81435 4.70897C2.87837 4.35898 1.68281 5.18438 2.06558 6.35395L4.22855 12.9628C4.41537 13.5336 4.94862 13.8789 5.50303 13.8789H14.0956C14.65 13.8789 15.1833 13.5336 15.3701 12.9628Z"
      fill="white" stroke="currentColor" stroke-width="2" />
  </symbol>

  <symbol id="exclude" viewBox="0 0 20 20">
    <path fill-rule="evenodd" clip-rule="evenodd"
      d="M10 3.6499C6.49302 3.6499 3.65002 6.49289 3.65002 9.9999C3.65002 13.5069 6.49302 16.3499 10 16.3499C13.507 16.3499 16.35 13.5069 16.35 9.9999C16.35 6.49289 13.507 3.6499 10 3.6499ZM5.68336 9.9999C5.68336 7.61587 7.616 5.68324 10 5.68324C10.824 5.68324 11.5934 5.9138 12.2481 6.31403L6.31415 12.248C5.91393 11.5933 5.68336 10.8239 5.68336 9.9999ZM10 14.3166C9.17602 14.3166 8.4066 14.086 7.75193 13.6858L13.6859 7.7518C14.0861 8.40648 14.3167 9.1759 14.3167 9.9999C14.3167 12.3839 12.3841 14.3166 10 14.3166Z"
      fill="currentColor" />
  </symbol>

  <!-- Core Social Network Icons Section -->
  <symbol id="instagram" viewBox="0 0 24 24">
    <path fill-rule="evenodd" clip-rule="evenodd" d="M11.9963 6.86598C9.16293 6.86598 6.86135 9.16405 6.86135 12.0019C6.86135 14.8398 9.15896 17.1379 11.9963 17.1379C14.8336 17.1379 17.1312 14.8398 17.1312 12.0019C17.1312 9.16405 14.8336 6.86598 11.9963 6.86598ZM11.9963 15.3319C10.155 15.3319 8.66293 13.8396 8.66293 11.9979C8.66293 10.1563 10.155 8.66395 11.9963 8.66395C13.8375 8.66395 15.3296 10.1563 15.3296 11.9979C15.3296 13.8396 13.8375 15.3319 11.9963 15.3319Z" fill="currentColor"/>
    <path d="M18.5318 6.65963C18.5318 7.32163 17.9953 7.85828 17.3334 7.85828C16.6715 7.85828 16.135 7.32163 16.135 6.65963C16.135 5.99764 16.6715 5.46098 17.3334 5.46098C17.9953 5.46098 18.5318 5.99764 18.5318 6.65963Z" fill="currentColor"/>
    <path fill-rule="evenodd" clip-rule="evenodd" d="M11.996 2C9.28175 2 8.94048 2.01191 7.87302 2.05954C6.80952 2.10716 6.08333 2.27783 5.44841 2.52391C4.78968 2.77793 4.23413 3.12324 3.67857 3.6789C3.12302 4.23457 2.78175 4.79421 2.52381 5.4491C2.27778 6.08414 2.10714 6.81048 2.05952 7.87815C2.0119 8.94185 2 9.28319 2 11.998C2 14.7128 2.0119 15.0542 2.05952 16.1218C2.10714 17.1856 2.27778 17.9119 2.52381 18.5509C2.77778 19.2098 3.12302 19.7654 3.67857 20.3211C4.23413 20.8768 4.79365 21.2181 5.44841 21.4761C6.08333 21.7222 6.80952 21.8928 7.87698 21.9405C8.94444 21.9881 9.28175 22 12 22C14.7183 22 15.0556 21.9881 16.123 21.9405C17.1865 21.8928 17.9127 21.7222 18.5516 21.4761C19.2103 21.2221 19.7659 20.8768 20.3214 20.3211C20.877 19.7654 21.2183 19.2058 21.4762 18.5509C21.7222 17.9159 21.8929 17.1895 21.9405 16.1218C21.9881 15.0542 22 14.7168 22 11.998C22 9.27922 21.9881 8.94185 21.9405 7.87418C21.8929 6.81048 21.7222 6.08414 21.4762 5.44513C21.2222 4.78627 20.877 4.2306 20.3214 3.67494C19.7659 3.11927 19.2064 2.77793 18.5516 2.51994C17.9167 2.27386 17.1905 2.1032 16.123 2.05557C15.0516 2.01191 14.7103 2 11.996 2ZM11.996 3.80194C14.6667 3.80194 14.9802 3.81385 16.0357 3.86148C17.0119 3.90514 17.5397 4.06787 17.8929 4.20679C18.3611 4.38936 18.6944 4.60369 19.0436 4.95297C19.3929 5.30224 19.6111 5.63564 19.7897 6.10399C19.9246 6.45723 20.0913 6.98512 20.1349 7.9615C20.1825 9.01726 20.1944 9.33082 20.1944 12.002C20.1944 14.6732 20.1825 14.9867 20.1349 16.0425C20.0913 17.0189 19.9286 17.5467 19.7897 17.9C19.6071 18.3683 19.3929 18.7017 19.0436 19.051C18.6944 19.4003 18.3611 19.6186 17.8929 19.7972C17.5397 19.9321 17.0119 20.0988 16.0357 20.1425C14.9802 20.1901 14.6667 20.202 11.996 20.202C9.3254 20.202 9.01191 20.1901 7.95635 20.1425C6.98016 20.0988 6.45238 19.9361 6.09921 19.7972C5.63095 19.6146 5.29762 19.4003 4.94841 19.051C4.59921 18.7017 4.38095 18.3683 4.20238 17.9C4.06746 17.5467 3.90079 17.0189 3.85714 16.0425C3.80952 14.9867 3.79762 14.6732 3.79762 12.002C3.79762 9.33082 3.80952 9.01726 3.85714 7.9615C3.90079 6.98512 4.06349 6.45723 4.20238 6.10399C4.38492 5.63564 4.59921 5.30224 4.94841 4.95297C5.29762 4.60369 5.63095 4.38539 6.09921 4.20679C6.45238 4.07184 6.98016 3.90514 7.95635 3.86148C9.01191 3.80988 9.32936 3.80194 11.996 3.80194Z" fill="currentColor"/>
  </symbol>

  <symbol id="tiktok" viewBox="0 0 24 24">
    <path
      d="M17.6101 5.80839C16.6216 5.14117 15.9088 4.07314 15.686 2.82878C15.6382 2.55999 15.6115 2.28309 15.6115 2H12.4572L12.4522 15.0908C12.3992 16.5568 11.234 17.7335 9.80597 17.7335C9.36187 17.7335 8.944 17.6186 8.57583 17.418C7.73181 16.9581 7.15426 16.0421 7.15426 14.9879C7.15426 13.4738 8.34389 12.2418 9.8055 12.2418C10.0784 12.2418 10.3403 12.2885 10.5879 12.3686V9.03391C10.3315 8.99769 10.071 8.97529 9.8055 8.97529C6.60431 8.97529 4 11.6723 4 14.9879C4 17.0219 4.98116 18.822 6.47867 19.9105C7.42164 20.5963 8.56893 21 9.80597 21C13.0072 21 15.6115 18.303 15.6115 14.9879V8.34954C16.8485 9.26887 18.3644 9.81075 20 9.81075V6.54423C19.1192 6.54423 18.2986 6.27306 17.6101 5.80839Z"
      fill="currentColor" />
  </symbol>

  <symbol id="youtube" viewBox="0 0 24 24">
    <path fill-rule="evenodd" clip-rule="evenodd"
      d="M20.595 4.47742C21.5413 4.74065 22.2875 5.51484 22.54 6.49806C23 8.28129 23 12 23 12C23 12 23 15.72 22.54 17.5019C22.2875 18.4852 21.5413 19.2594 20.595 19.5226C18.88 20 12 20 12 20C12 20 5.12125 20 3.405 19.5226C2.45875 19.2594 1.7125 18.4852 1.46 17.5019C1 15.7187 1 12 1 12C1 12 1 8.28129 1.46 6.49806C1.7125 5.51484 2.45875 4.74065 3.405 4.47742C5.12 4 12 4 12 4C12 4 18.88 4 20.595 4.47742ZM15.5 12L9.75005 15.3768V8.62323L15.5 12Z"
      fill="currentColor" />
  </symbol>

  <symbol id="reddit" viewBox="0 0 24 24">
    <path
      d="M19.7708 9.36434C19.1391 9.36434 18.5833 9.63125 18.1743 10.0467C16.67 8.98652 14.6419 8.30417 12.3942 8.23167L13.5618 2.87557L17.2794 3.72488C17.2794 4.6514 18.0212 5.40782 18.9309 5.40782C19.8583 5.40782 20.6044 4.63102 20.6044 3.70371C20.6044 2.77641 19.8634 2 18.9317 2C18.2825 2 17.7227 2.39898 17.4434 2.94416L13.3376 2.01764C13.1309 1.96159 12.9286 2.11209 12.8735 2.32295L11.5919 8.22775C9.3618 8.3222 7.35516 9.00377 5.84618 10.0647C5.4372 9.63164 4.85946 9.36473 4.22782 9.36473C1.88446 9.36473 1.11689 12.5664 3.26298 13.6607C3.1872 13.9993 3.15282 14.3607 3.15282 14.7208C3.15282 18.3168 7.13212 21.2308 12.0177 21.2308C16.9243 21.2308 20.9036 18.3168 20.9036 14.7208C20.9036 14.3607 20.8661 13.9824 20.7735 13.643C22.8759 12.5441 22.1016 9.3663 19.7708 9.36434ZM6.66767 13.888C6.66767 12.9438 7.40946 12.1839 8.3411 12.1839C9.25126 12.1839 9.99344 12.9387 9.99344 13.888C9.99344 14.8153 9.25165 15.5709 8.3411 15.5709C7.41337 15.5752 6.66767 14.8153 6.66767 13.888ZM15.7001 17.8994C14.1661 19.4612 9.8368 19.4612 8.30165 17.8994C8.13251 17.7489 8.13251 17.4831 8.30165 17.3115C8.44931 17.161 8.71063 17.161 8.85829 17.3115C10.0298 18.5347 13.9165 18.5555 15.1391 17.3115C15.2868 17.161 15.5481 17.161 15.6958 17.3115C15.8684 17.4839 15.8684 17.7501 15.7001 17.8994ZM15.6657 15.5745C14.7556 15.5745 14.0141 14.8196 14.0141 13.8931C14.0141 12.9489 14.7559 12.189 15.6657 12.189C16.5931 12.189 17.3391 12.9438 17.3391 13.8931C17.3352 14.8153 16.5934 15.5745 15.6657 15.5745Z"
      fill="currentColor" />
  </symbol>

  <symbol id="discord" viewBox="0 0 24 24">
    <path
      d="M19.6239 5.40921C18.2217 4.75695 16.7181 4.27639 15.1459 4.00115C15.1173 3.99584 15.0887 4.00912 15.0739 4.03567C14.8805 4.38436 14.6663 4.83925 14.5163 5.19679C12.8254 4.94015 11.1431 4.94015 9.48679 5.19679C9.33676 4.8313 9.11478 4.38436 8.92053 4.03567C8.90578 4.01 8.87718 3.99673 8.84855 4.00115C7.27725 4.27551 5.7736 4.75607 4.37052 5.40921C4.35838 5.41452 4.34797 5.42337 4.34106 5.43487C1.48894 9.75461 0.707629 13.9682 1.09092 18.1295C1.09265 18.1498 1.10392 18.1693 1.11953 18.1817C3.00127 19.5827 4.82406 20.4332 6.61301 20.9969C6.64164 21.0058 6.67197 20.9951 6.69019 20.9712C7.11337 20.3854 7.49059 19.7676 7.81402 19.118C7.83311 19.08 7.81489 19.0348 7.77588 19.0198C7.17754 18.7897 6.6078 18.5091 6.05975 18.1906C6.0164 18.1649 6.01293 18.102 6.05281 18.0719C6.16814 17.9843 6.2835 17.8932 6.39363 17.8011C6.41355 17.7843 6.44131 17.7808 6.46474 17.7914C10.0652 19.4579 13.9631 19.4579 17.521 17.7914C17.5445 17.7799 17.5722 17.7834 17.593 17.8002C17.7032 17.8923 17.8185 17.9843 17.9347 18.0719C17.9746 18.102 17.972 18.1649 17.9286 18.1906C17.3806 18.5153 16.8108 18.7897 16.2116 19.0189C16.1726 19.034 16.1553 19.08 16.1744 19.118C16.5047 19.7667 16.882 20.3845 17.2973 20.9704C17.3147 20.9951 17.3459 21.0058 17.3745 20.9969C19.1721 20.4332 20.9949 19.5827 22.8766 18.1817C22.8931 18.1693 22.9035 18.1507 22.9053 18.1304C23.364 13.3194 22.1369 9.14042 19.6525 5.43575C19.6465 5.42337 19.6361 5.41452 19.6239 5.40921ZM8.35169 15.5957C7.26771 15.5957 6.37454 14.5868 6.37454 13.3478C6.37454 12.1087 7.25039 11.0998 8.35169 11.0998C9.46163 11.0998 10.3462 12.1176 10.3288 13.3478C10.3288 14.5868 9.45296 15.5957 8.35169 15.5957ZM15.6619 15.5957C14.5779 15.5957 13.6847 14.5868 13.6847 13.3478C13.6847 12.1087 14.5606 11.0998 15.6619 11.0998C16.7718 11.0998 17.6563 12.1176 17.639 13.3478C17.639 14.5868 16.7718 15.5957 15.6619 15.5957Z"
      fill="currentColor" />
  </symbol>

  <symbol id="twitter" viewBox="0 0 24 24">
    <path
      d="M13.4821 10.6218L20.0389 3H18.4852L12.7919 9.61788L8.24467 3H3L9.87627 13.0074L3 21H4.55384L10.5661 14.0113L15.3683 21H20.613L13.4817 10.6218H13.4821ZM11.3539 13.0956L10.6572 12.0991L5.11372 4.16971H7.50033L11.974 10.5689L12.6707 11.5655L18.4859 19.8835H16.0993L11.3539 13.096V13.0956Z"
      fill="currentColor" />
  </symbol>
  <!-- End - Core Social Network Icons Section -->
</svg>
